<svg width="131.3500244140625px" height="103.42746582031249px" xmlns="http://www.w3.org/2000/svg" viewBox="184.32498779296876 23.286267089843754 131.3500244140625 103.42746582031249" style="background: rgba(0, 0, 0, 0);" preserveAspectRatio="xMidYMid"><defs><filter id="editing-jagged" x="-100%" y="-100%" width="300%" height="300%"><feTurbulence result="turb" baseFrequency="0.1" numOctaves="1" seed="1"></feTurbulence><feDisplacementMap in="SourceGraphic" in2="turb" scale="10"></feDisplacementMap></filter></defs><g filter="url(#editing-jagged)"><g transform="translate(208.94828081130981, 99.67499923706055)"><path d="M34.34-1.46L20.92-42.46L7.56-1.46L7.56-1.52L7.56-1.52Q7.20-0.61 6.56-0.03L6.56-0.03L6.56-0.03Q5.92 0.55 5.00 0.55L5.00 0.55L5.00 0.55Q4.51 0.55 4.06 0.46L4.06 0.46L4.06 0.46Q3.60 0.37 3.11 0.24L3.11 0.24L3.17 0.24L3.17 0.24Q-0.30-0.85 0.61-3.66L0.61-3.66L14.52-45.93L14.52-45.93Q14.82-46.91 15.59-47.58L15.59-47.58L15.59-47.58Q16.35-48.25 17.38-48.37L17.38-48.37L17.38-48.37Q18.42-48.56 19.40-48.65L19.40-48.65L19.40-48.65Q20.37-48.74 20.92-48.74L20.92-48.74L20.92-48.74Q21.47-48.74 22.45-48.65L22.45-48.65L22.45-48.65Q23.42-48.56 24.46-48.43L24.46-48.43L24.46-48.43Q25.31-48.31 26.14-47.52L26.14-47.52L26.14-47.52Q26.96-46.73 27.39-45.93L27.39-45.93L27.39-45.93Q30.80-35.44 34.31-24.80L34.31-24.80L34.31-24.80Q37.82-14.15 41.24-3.66L41.24-3.66L41.24-3.66Q42.09-0.85 38.67 0.24L38.67 0.24L38.67 0.24Q38.19 0.37 37.79 0.46L37.79 0.46L37.79 0.46Q37.39 0.55 36.91 0.55L36.91 0.55L36.91 0.55Q36.05 0.55 35.35-0.03L35.35-0.03L35.35-0.03Q34.65-0.61 34.34-1.52L34.34-1.52L34.34-1.46ZM25.50-14.64L25.50-14.64L25.50-14.64Q25.50-12.69 24.13-11.32L24.13-11.32L24.13-11.32Q22.75-9.94 20.80-9.94L20.80-9.94L20.80-9.94Q18.85-9.94 17.51-11.32L17.51-11.32L17.51-11.32Q16.16-12.69 16.16-14.64L16.16-14.64L16.16-14.64Q16.16-16.59 17.51-17.96L17.51-17.96L17.51-17.96Q18.85-19.34 20.80-19.34L20.80-19.34L20.80-19.34Q22.75-19.34 24.13-17.96L24.13-17.96L24.13-17.96Q25.50-16.59 25.50-14.64ZM53.92-25.86L72.53-47.70L72.53-47.70Q73.44-48.80 74.60-48.80L74.60-48.80L74.60-48.80Q75.88-48.80 77.23-47.64L77.23-47.64L77.23-47.64Q77.90-46.97 78.35-46.30L78.35-46.30L78.35-46.30Q78.81-45.63 78.81-44.96L78.81-44.96L78.81-44.96Q78.81-43.86 78.02-43.07L78.02-43.07L69.84-33.55L53.92-14.82L53.92-2.56L53.92-2.56Q53.92 0.37 50.26 0.37L50.26 0.37L50.26 0.37Q46.66 0.37 46.66-2.56L46.66-2.56L46.66-45.81L46.66-45.81Q46.66-48.74 50.26-48.74L50.26-48.74L50.26-48.74Q53.92-48.74 53.92-45.81L53.92-45.81L53.92-25.86ZM75.46-1.83L63.87-18.73L63.87-18.73Q63.26-19.58 63.26-20.80L63.26-20.80L63.26-20.80Q63.26-22.63 64.78-23.73L64.78-23.73L64.72-23.73L64.72-23.73Q65.94-24.58 67.16-24.58L67.16-24.58L67.16-24.58Q68.32-24.58 69.11-23.24L69.11-23.24L80.89-6.04L80.82-6.10L80.82-6.10Q81.37-5.25 81.37-4.27L81.37-4.27L81.37-4.27Q81.37-2.68 79.79-1.46L79.79-1.46L79.85-1.46L79.85-1.46Q79.18-1.04 78.57-0.79L78.57-0.79L78.57-0.79Q77.96-0.55 77.47-0.55L77.47-0.55L77.47-0.55Q76.98-0.55 76.46-0.92L76.46-0.92L76.46-0.92Q75.94-1.28 75.46-1.83L75.46-1.83Z" fill="#444"></path></g></g><style>text {
  font-size: 64px;
  font-family: Arial Black;
  dominant-baseline: central;
  text-anchor: middle;
}</style></svg>